Coordinates
version=1
nRows=27
nColumns=12
inDegrees=yes

Units are S.I. units (second, meters, Newtons, ...)
Angles are in degrees

endheader
time	SC_y	SC_z	SC_x	AC_y	AC_z	AC_x	GH_y	GH_z	GH_yy	EL_x	PS_y
       0.0              -20.36          7.745          82.83          37.45         -15.33         -4.564          59.23          47.96         -138.0          30.37          153.4
   0.04575              -20.37          7.744          82.83          37.45         -15.32         -4.562          59.22          47.96         -138.0          30.38          153.4
   0.09151              -20.37          7.744          82.82          37.46         -15.32          -4.56          59.21          47.96         -138.0           30.4          153.4
    0.1373              -20.37          7.743          82.82          37.46         -15.32         -4.557          59.19          47.96         -137.9          30.41          153.4
     0.183              -20.38          7.742          82.81          37.47         -15.31         -4.555          59.18          47.95         -137.9          30.43          153.4
    0.2288              -20.38          7.741          82.81          37.47         -15.31         -4.552          59.17          47.95         -137.9          30.45          153.3
    0.2745              -20.39          7.741           82.8          37.48          -15.3         -4.549          59.15          47.95         -137.9          30.46          153.3
    0.3203              -20.39           7.74           82.8          37.48          -15.3         -4.546          59.13          47.94         -137.8          30.48          153.3
     0.366               -20.4          7.739          82.79          37.49         -15.29         -4.543          59.12          47.94         -137.8           30.5          153.3
    0.4118               -20.4          7.738          82.79          37.49         -15.29          -4.54           59.1          47.94         -137.8          30.53          153.3
    0.4575              -20.41          7.736          82.78           37.5         -15.28         -4.536          59.08          47.93         -137.7          30.55          153.2
    0.5033              -20.41          7.735          82.77          37.51         -15.27         -4.532          59.06          47.93         -137.7          30.58          153.2
     0.549              -20.42          7.734          82.76          37.51         -15.27         -4.528          59.03          47.93         -137.6           30.6          153.2
    0.5948              -20.43          7.732          82.76          37.52         -15.26         -4.523          59.01          47.92         -137.6          30.63          153.2
    0.6406              -20.44          7.731          82.75          37.53         -15.25         -4.518          58.98          47.92         -137.6          30.67          153.1
    0.6863              -20.44          7.729          82.74          37.54         -15.24         -4.513          58.95          47.91         -137.5           30.7          153.1
    0.7321              -20.45          7.727          82.73          37.55         -15.23         -4.507          58.92          47.91         -137.4          30.74          153.1
    0.7778              -20.46          7.725          82.71          37.56         -15.22         -4.501          58.88           47.9         -137.4          30.78          153.0
    0.8236              -20.47          7.723           82.7          37.57         -15.21         -4.494          58.84          47.89         -137.3          30.83          153.0
    0.8693              -20.49          7.721          82.69          37.59          -15.2         -4.486           58.8          47.88         -137.2          30.88          152.9
    0.9151               -20.5          7.718          82.67           37.6         -15.18         -4.478          58.76          47.88         -137.1          30.93          152.9
    0.9608              -20.51          7.715          82.65          37.62         -15.17         -4.468           58.7          47.87         -137.0          30.99          152.8
     1.007              -20.53          7.712          82.63          37.64         -15.15         -4.458          58.65          47.86         -136.9          31.06          152.8
     1.052              -20.55          7.709          82.61          37.66         -15.13         -4.447          58.59          47.85         -136.8          31.13          152.7
     1.098              -20.57          7.705          82.59          37.68         -15.11         -4.434          58.52          47.83         -136.7          31.21          152.6
     1.144              -20.59          7.701          82.56           37.7         -15.08          -4.42          58.44          47.82         -136.6           31.3          152.5
      1.19              -20.61          7.696          82.53          37.73         -15.06         -4.405          58.35           47.8         -136.4          31.41          152.4
